HIERARCHY
ROOT Hips
{
	OFFSET 0.00000 0.00000 0.00000
	CHANNELS 6 Xposition Yposition Zposition Zrotation Yrotation Xrotation 
	JOINT LHipJoint
	{
		OFFSET 0 0 0
		CHANNELS 3 Zrotation Yrotation Xrotation
		JOINT LeftHip
		{
			OFFSET 1.65412 -1.54119 0.76744
			CHANNELS 3 Zrotation Yrotation Xrotation
			JOINT LeftKnee
			{
				OFFSET 2.19550 -6.03209 0.00000
				CHANNELS 3 Zrotation Yrotation Xrotation
				JOINT LeftAnkle
				{
					OFFSET 2.38814 -6.56138 0.00000
					CHANNELS 3 Zrotation Yrotation Xrotation
					JOINT LeftToe
					{
						OFFSET 0.17337 -0.47632 1.75875
						CHANNELS 3 Zrotation Yrotation Xrotation
						End Site
						{
							OFFSET 0.00000 -0.00000 0.92050
						}
					}
				}
			}
		}
	}
	JOINT RHipJoint
	{
		OFFSET 0 0 0
		CHANNELS 3 Zrotation Yrotation Xrotation
		JOINT RightHip
		{
			OFFSET -1.40291 -1.54119 0.76744
			CHANNELS 3 Zrotation Yrotation Xrotation
			JOINT RightKnee
			{
				OFFSET -2.22156 -6.10370 0.00000
				CHANNELS 3 Zrotation Yrotation Xrotation
				JOINT RightAnkle
				{
					OFFSET -2.46840 -6.78188 0.00000
					CHANNELS 3 Zrotation Yrotation Xrotation
					JOINT RightToe
					{
						OFFSET -0.15659 -0.43024 1.84117
						CHANNELS 3 Zrotation Yrotation Xrotation
						End Site
						{
							OFFSET -0.00000 -0.00000 0.95587
						}
					}
				}
			}
		}
	}
	JOINT lowerback
	{
		OFFSET 0 0 0
		CHANNELS 3 Zrotation Yrotation Xrotation
		JOINT Chest
		{
			OFFSET -0.01936 1.82120 -0.32061
			CHANNELS 3 Zrotation Yrotation Xrotation
			JOINT Chest2
			{
				OFFSET -0.00532 1.85767 -0.00071
				CHANNELS 3 Zrotation Yrotation Xrotation
				JOINT lowerneck
				{
					OFFSET 0 0 0
					CHANNELS 3 Zrotation Yrotation Xrotation
					JOINT Neck
					{
						OFFSET -0.10687 1.58194 0.10810
						CHANNELS 3 Zrotation Yrotation Xrotation
						JOINT Head
						{
							OFFSET 0.15346 1.57382 -0.25612
							CHANNELS 3 Zrotation Yrotation Xrotation
							End Site
							{
								OFFSET 0.05334 1.61251 -0.10513
							}
						}
					}
				}
				JOINT LeftCollar
				{
					OFFSET 0 0 0
					CHANNELS 3 Zrotation Yrotation Xrotation
					JOINT LeftShoulder
					{
						OFFSET 2.85758 0.89498 -0.01485
CHANNELS 3 Zrotation Xrotation Yrotation
						JOINT LeftElbow
						{
OFFSET 0 -4.791850 -0.000000
CHANNELS 3 Zrotation Xrotation Yrotation
							JOINT LeftWrist
							{
OFFSET 0 -2.655530 0.000000
CHANNELS 3 Zrotation Xrotation Yrotation
								JOINT lhand
								{
									OFFSET 0 0 0
CHANNELS 3 Zrotation Xrotation Yrotation
									JOINT LFingers
									{
OFFSET 0 -0.743900 0.000000
CHANNELS 3 Zrotation Xrotation Yrotation
										End Site
										{
OFFSET 0 -0.599750 0.000000
										}
									}
								}
								JOINT LThumb
								{
OFFSET 0 0.000000 0.000000
CHANNELS 3 Zrotation Xrotation Yrotation
									End Site
									{
OFFSET 0 -0.608910 0.608910
									}
								}
							}
						}
					}
				}
				JOINT RightCollar
				{
					OFFSET 0 0 0
					CHANNELS 3 Zrotation Yrotation Xrotation
					JOINT RightShoulder
					{
						OFFSET -2.93906 0.88031 0.02490
CHANNELS 3 Zrotation Xrotation Yrotation
						JOINT RightElbow
						{
OFFSET 0 -4.772540 -0.000000
CHANNELS 3 Zrotation Xrotation Yrotation
							JOINT RightWrist
							{
OFFSET 0 -2.759950 -0.000000
CHANNELS 3 Zrotation Xrotation Yrotation
								JOINT rhand
								{
									OFFSET 0 0 0
CHANNELS 3 Zrotation Xrotation Yrotation
									JOINT RFingers
									{
OFFSET 0 -0.701620 0.000000
CHANNELS 3 Zrotation Xrotation Yrotation
										End Site
										{
OFFSET 0 -0.565660 0.000000
										}
									}
								}
								JOINT RThumb
								{
OFFSET 0 0.000000 0.000000
CHANNELS 3 Zrotation Xrotation Yrotation
									End Site
									{
OFFSET 0 -0.574300 0.574300
									}
								}
							}
						}
					}
				}
			}
		}
	}
}
MOTION
Frames: 6
Frame Time: 0.008333333333333333
-0.251500 16.191300 -0.336200 0.164100 9.190400 0.868300 0.000000 0.000000 0.000000 -15.857300 -16.216500 9.093400 0.000000 -0.000000 -0.000000 -0.222300 8.732000 -6.012400 0.369000 -3.902000 -10.801200 0.000000 0.000000 0.000000 19.321200 7.451500 2.644000 -0.540400 -4.709900 13.083000 0.025100 -13.520700 -18.917700 -0.062800 -1.616500 4.446900 4.544800 -0.469200 8.626600 -2.287600 -0.262200 -3.178200 -4.963000 -0.437900 -8.270200 -10.374300 0.572500 -6.815200 -13.272600 2.495700 3.738900 -2.470900 0.679200 2.482500 0.000000 0.000000 0.000000 4.716600 9.330400 -12.708000 12.265600 -20.201800 2.193200 11.476100 4.487700 -12.868700 0.000000 0.000000 0.000000 -7.125000 0.000000 0.000000 -14.257200 42.648500 -0.845900 0.000000 0.000000 0.000000 -106.248300 -16.321500 -29.008600 -156.135000 -35.021200 -112.371000 -15.329900 3.030300 -5.950700 0.000000 0.000000 0.000000 7.125000 0.000000 -0.000000 8.426200 23.820800 4.350600
-0.213397 16.191929 -0.346851 -0.522558 8.918870 0.359248 0.000000 0.000000 0.000000 -15.323973 -15.826998 9.451934 0.000000 0.000000 0.000000 -0.218791 8.674092 -6.002388 0.369160 -3.902723 -10.803259 0.000000 0.000000 0.000000 20.053741 7.767015 3.704289 -0.466106 -4.378947 12.145327 0.120828 -14.071846 -18.555466 -0.064684 -1.636655 4.502595 5.185609 -0.399428 9.031311 -2.046070 -0.055121 -3.044199 -5.104211 -0.362506 -8.340047 -10.412176 0.518080 -7.384064 -12.383602 2.628491 4.879686 -2.171036 0.657451 2.963940 0.000000 0.000000 0.000000 4.897316 9.464920 -14.097033 12.318024 -20.279664 2.211453 11.665869 3.713539 -13.056346 0.000000 0.000000 0.000000 -7.125000 0.000000 0.000000 -14.142222 42.852431 -0.765774 0.000000 0.000000 0.000000 -106.150526 -16.110677 -29.037941 -156.182894 -34.970252 -112.398540 -15.022624 2.329431 -6.156440 0.000000 0.000000 0.000000 7.125000 0.000000 0.000000 8.643051 23.619528 4.505561
-0.150789 16.196591 -0.359840 0.696245 8.735045 0.808544 0.000000 0.000000 0.000000 -16.863626 -15.735729 9.107498 0.000000 0.000000 0.000000 -0.218700 8.605698 -5.735376 0.388385 -4.001984 -11.082368 0.000000 0.000000 0.000000 18.338267 7.887524 2.493698 -0.598944 -4.954064 13.777689 -0.041596 -13.129038 -19.163492 -0.080855 -1.833225 5.045062 4.192505 -0.324586 8.687282 -2.307394 -0.110315 -3.063688 -4.805862 -0.339874 -8.158884 -10.443621 0.453296 -7.623886 -11.932820 2.599178 5.233634 -2.017930 0.621286 3.121399 0.000000 0.000000 0.000000 4.711903 9.038413 -13.831890 11.992422 -19.793207 2.099729 11.758904 4.260285 -12.664692 0.000000 0.000000 0.000000 -7.125000 0.000000 0.000000 -13.955239 42.475554 -0.887434 0.000000 0.000000 0.000000 -106.223112 -16.115676 -29.110596 -156.238386 -34.911168 -112.430315 -15.443691 2.245828 -6.290436 0.000000 0.000000 0.000000 7.125000 0.000000 0.000000 8.327262 23.468736 4.366694
-0.087152 16.191214 -0.363011 -0.326312 7.940387 0.178140 0.000000 0.000000 0.000000 -16.039284 -14.778113 9.485217 0.000000 0.000000 0.000000 -0.213634 8.556916 -5.874434 0.391253 -4.016489 -11.123001 0.000000 0.000000 0.000000 19.363756 8.201394 4.114056 -0.452848 -4.317188 11.970846 0.117923 -13.860615 -18.268818 -0.050058 -1.443857 3.971025 5.154119 -0.347908 9.020834 -1.839218 0.021618 -2.768841 -4.871893 -0.300228 -8.023563 -10.303908 0.518530 -8.067562 -11.749888 2.748212 5.403563 -1.974656 0.674300 3.265370 0.000000 0.000000 0.000000 4.605693 8.920692 -15.044168 12.260311 -20.193939 2.191288 11.390262 4.180496 -14.345436 0.000000 0.000000 0.000000 -7.125000 0.000000 0.000000 -14.753259 44.090376 -0.339041 0.000000 0.000000 0.000000 -105.955159 -16.668947 -29.106729 -156.477876 -34.654858 -112.566938 -16.218735 0.776523 -7.277119 0.000000 0.000000 0.000000 7.125000 0.000000 0.000000 7.723524 22.425778 4.230537
-0.005735 16.192894 -0.364731 0.112814 7.222161 0.361009 0.000000 0.000000 0.000000 -16.759902 -14.074700 9.262889 0.000000 0.000000 0.000000 -0.206780 8.417443 -5.767093 0.407554 -4.098370 -11.353558 0.000000 0.000000 0.000000 18.483374 8.439742 3.888485 -0.462369 -4.361455 12.095888 0.095796 -13.433538 -17.903935 -0.039006 -1.274594 3.504558 4.856475 -0.320695 8.817333 -1.867647 0.010132 -2.761683 -4.728334 -0.287620 -7.896575 -10.112375 0.418674 -7.951866 -11.622888 2.560429 5.400767 -1.972843 0.593626 3.238493 0.000000 0.000000 0.000000 4.467129 8.506297 -14.682712 11.910605 -19.670412 2.072074 11.377611 5.647078 -14.444045 0.000000 0.000000 0.000000 -7.125000 0.000000 0.000000 -14.793922 44.185677 -0.304329 0.000000 0.000000 0.000000 -105.681830 -16.851508 -28.832458 -156.442945 -34.692413 -112.547012 -17.535731 0.767022 -7.142719 0.000000 0.000000 0.000000 7.125000 0.000000 0.000000 6.765626 22.508687 3.685193
0.082913 16.192943 -0.363701 0.356714 6.368960 0.408494 0.000000 0.000000 0.000000 -17.303750 -13.194850 9.150362 0.000000 0.000000 0.000000 -0.194886 8.254692 -5.903339 0.376143 -3.938887 -10.904860 0.000000 0.000000 0.000000 17.877318 9.017901 4.027076 -0.456588 -4.334595 12.019969 0.090614 -13.223458 -17.654138 -0.035144 -1.209644 3.325943 4.514024 -0.322861 8.799237 -1.789626 -0.029719 -2.667530 -4.442060 -0.282603 -7.785599 -9.766732 0.318082 -8.004206 -11.283230 2.348649 5.290655 -1.923844 0.514766 3.202004 0.000000 0.000000 0.000000 4.205885 8.292766 -14.911559 11.968266 -19.757063 2.091584 11.210427 5.806342 -14.682006 0.000000 0.000000 0.000000 -7.125000 0.000000 0.000000 -15.014645 44.399837 -0.227618 0.000000 0.000000 0.000000 -103.915246 -16.991160 -29.037859 -156.350547 -34.791325 -112.494366 -18.362803 0.351771 -7.732662 0.000000 0.000000 0.000000 7.125000 0.000000 0.000000 6.152545 21.854879 3.439408
